<svg version="1.1" viewBox="0.0 0.0 1200.0 1500.0" fill="none" stroke="none" stroke-linecap="square" stroke-miterlimit="10" xmlns:xlink="http://www.w3.org/1999/xlink" xmlns="http://www.w3.org/2000/svg"><clipPath id="p.0"><path d="m0 0l1200.0 0l0 1500.0l-1200.0 0l0 -1500.0z" clip-rule="nonzero"/></clipPath><g clip-path="url(#p.0)"><path fill="#000000" fill-opacity="0.0" d="m0 0l1200.0 0l0 1500.0l-1200.0 0z" fill-rule="evenodd"/><path fill="#351c75" d="m0 200.004l0 0c0 -110.45916 89.54484 -200.004 200.004 -200.004l799.99194 0l0 0c53.044434 0 103.91614 21.071789 141.4242 58.579815c37.508057 37.50803 58.579834 88.37982 58.579834 141.42418l0 1099.992c0 110.45923 -89.5448 200.00403 -200.00403 200.00403l-799.99194 0c-110.45916 0 -200.004 -89.5448 -200.004 -200.00403z" fill-rule="evenodd"/><path fill="#000000" fill-opacity="0.0" d="m405.75064 390.7287l281.82675 401.4803" fill-rule="evenodd"/><path stroke="#ffffff" stroke-width="12.0" stroke-linejoin="round" stroke-linecap="butt" stroke-dasharray="48.0,36.0" d="m405.75064 390.7287l281.82675 401.4803" fill-rule="evenodd"/><path fill="#000000" fill-opacity="0.0" d="m902.56555 432.68268l-214.99213 359.52753" fill-rule="evenodd"/><path stroke="#ffffff" stroke-width="12.0" stroke-linejoin="round" stroke-linecap="butt" stroke-dasharray="48.0,36.0" d="m902.56555 432.68268l-214.99213 359.52753" fill-rule="evenodd"/><path fill="#ffffff" d="m851.43304 454.0143l0 0c0 -16.661041 13.410278 -30.16748 29.952759 -30.16748l0 0c7.9439087 0 15.562561 3.1783447 21.179749 8.835846c5.6172485 5.657501 8.772949 13.330719 8.772949 21.331635l0 0c0 16.661041 -13.410278 30.16748 -29.952698 30.16748l0 0c-16.54248 0 -29.952759 -13.506439 -29.952759 -30.16748z" fill-rule="evenodd"/><path stroke="#ffffff" stroke-width="24.0" stroke-linejoin="round" stroke-linecap="butt" d="m851.43304 454.0143l0 0c0 -16.661041 13.410278 -30.16748 29.952759 -30.16748l0 0c7.9439087 0 15.562561 3.1783447 21.179749 8.835846c5.6172485 5.657501 8.772949 13.330719 8.772949 21.331635l0 0c0 16.661041 -13.410278 30.16748 -29.952698 30.16748l0 0c-16.54248 0 -29.952759 -13.506439 -29.952759 -30.16748z" fill-rule="evenodd"/><path fill="#ffffff" d="m288.66403 340.44974l0 0c0 -5.5538025 4.502228 -10.05603 10.05603 -10.05603l214.06119 0c2.6669922 0 5.2247925 1.0594788 7.1106567 2.945343c1.8858643 1.8858643 2.9453735 4.4436646 2.9453735 7.1106873l0 40.22293c0 5.553772 -4.5022583 10.05603 -10.05603 10.05603l-214.06119 0l0 0c-5.5538025 0 -10.05603 -4.5022583 -10.05603 -10.05603z" fill-rule="evenodd"/><path stroke="#ffffff" stroke-width="24.0" stroke-linejoin="round" stroke-linecap="butt" d="m288.66403 340.44974l0 0c0 -5.5538025 4.502228 -10.05603 10.05603 -10.05603l214.06119 0c2.6669922 0 5.2247925 1.0594788 7.1106567 2.945343c1.8858643 1.8858643 2.9453735 4.4436646 2.9453735 7.1106873l0 40.22293c0 5.553772 -4.5022583 10.05603 -10.05603 10.05603l-214.06119 0l0 0c-5.5538025 0 -10.05603 -4.5022583 -10.05603 -10.05603z" fill-rule="evenodd"/><path fill="#ffffff" d="m570.4845 802.2766l0 0c0 -5.553772 4.5022583 -10.05603 10.05603 -10.05603l214.06122 0c2.6669922 0 5.2247925 1.0594482 7.1106567 2.9453125c1.8858643 1.8859253 2.9453735 4.4436646 2.9453735 7.110718l0 40.2229c0 5.553833 -4.5022583 10.05603 -10.05603 10.05603l-214.06122 0l0 0c-5.553772 0 -10.05603 -4.5021973 -10.05603 -10.05603z" fill-rule="evenodd"/><path stroke="#ffffff" stroke-width="24.0" stroke-linejoin="round" stroke-linecap="butt" d="m570.4845 802.2766l0 0c0 -5.553772 4.5022583 -10.05603 10.05603 -10.05603l214.06122 0c2.6669922 0 5.2247925 1.0594482 7.1106567 2.9453125c1.8858643 1.8859253 2.9453735 4.4436646 2.9453735 7.110718l0 40.2229c0 5.553833 -4.5022583 10.05603 -10.05603 10.05603l-214.06122 0l0 0c-5.553772 0 -10.05603 -4.5021973 -10.05603 -10.05603z" fill-rule="evenodd"/><path fill="#000000" fill-opacity="0.0" d="m2.015748 1071.6141l1195.9685 0l0 203.62207l-1195.9685 0z" fill-rule="evenodd"/><path fill="#ffffff" d="m279.35986 1226.5342q-10.1875 -18.09375 -22.046875 -35.71875q-11.859375 -17.640625 -25.234375 -33.296875l0 69.015625l-23.40625 0l0 -105.34375l19.3125 0q5.015625 5.03125 11.09375 12.328125q6.078125 7.28125 12.375 15.578125q6.3125 8.28125 12.546875 17.171875q6.234375 8.890625 11.703125 17.09375l0 -62.171875l23.5625 0l0 105.34375l-19.90625 0zm38.911957 -39.375q0 -10.640625 3.265625 -18.609375q3.265625 -7.984375 8.578125 -13.296875q5.328125 -5.328125 12.234375 -8.0625q6.921875 -2.734375 14.21875 -2.734375q17.03125 0 26.90625 10.421875q9.875 10.40625 9.875 30.609375q0 1.984375 -0.15625 4.34375q-0.140625 2.34375 -0.296875 4.171875l-51.375 0q0.765625 7.0 6.53125 11.109375q5.78125 4.09375 15.515625 4.09375q6.234375 0 12.234375 -1.140625q6.0 -1.140625 9.796875 -2.8125l3.046875 18.390625q-1.828125 0.921875 -4.875 1.828125q-3.03125 0.90625 -6.765625 1.59375q-3.71875 0.6875 -7.96875 1.140625q-4.25 0.453125 -8.515625 0.453125q-10.796875 0 -18.78125 -3.1875q-7.96875 -3.1875 -13.21875 -8.734375q-5.234375 -5.5625 -7.75 -13.15625q-2.5 -7.59375 -2.5 -16.421875zm53.203125 -8.65625q-0.15625 -2.890625 -1.0 -5.625q-0.828125 -2.734375 -2.578125 -4.859375q-1.75 -2.125 -4.40625 -3.5q-2.65625 -1.375 -6.609375 -1.375q-3.8125 0 -6.546875 1.296875q-2.734375 1.296875 -4.5625 3.421875q-1.8125 2.125 -2.8125 4.9375q-0.984375 2.8125 -1.4375 5.703125l29.953125 0zm38.5961 -51.828125l22.65625 -3.65625l0 23.5625l27.203125 0l0 18.84375l-27.203125 0l0 28.125q0 7.140625 2.5 11.40625q2.515625 4.25 10.109375 4.25q3.65625 0 7.53125 -0.6875q3.875 -0.6875 7.0625 -1.890625l3.1875 17.625q-4.09375 1.671875 -9.109375 2.890625q-5.015625 1.21875 -12.3125 1.21875q-9.28125 0 -15.359375 -2.5q-6.078125 -2.515625 -9.734375 -7.0q-3.640625 -4.484375 -5.09375 -10.859375q-1.4375 -6.390625 -1.4375 -14.15625l0 -67.171875zm137.8742 -6.6875q23.5625 0 36.171875 8.28125q12.609375 8.28125 12.609375 27.125q0 19.0 -12.765625 27.4375q-12.765625 8.4375 -36.484375 8.4375l-7.4375 0l0 35.265625l-23.71875 0l0 -103.8125q7.75 -1.53125 16.40625 -2.125q8.671875 -0.609375 15.21875 -0.609375zm1.515625 20.203125q-2.578125 0 -5.09375 0.15625q-2.5 0.15625 -4.328125 0.3125l0 30.390625l7.4375 0q12.3125 0 18.546875 -3.34375q6.234375 -3.34375 6.234375 -12.453125q0 -4.421875 -1.59375 -7.296875q-1.59375 -2.890625 -4.5625 -4.640625q-2.96875 -1.75 -7.21875 -2.4375q-4.25 -0.6875 -9.421875 -0.6875zm90.73859 70.53125q3.34375 0 6.375 -0.140625q3.046875 -0.15625 4.875 -0.46875l0 -17.171875q-1.359375 -0.296875 -4.109375 -0.59375q-2.734375 -0.3125 -5.015625 -0.3125q-3.1875 0 -6.0 0.375q-2.8125 0.375 -4.9375 1.453125q-2.125 1.0625 -3.34375 2.890625q-1.21875 1.8125 -1.21875 4.546875q0 5.328125 3.5625 7.375q3.578125 2.046875 9.8125 2.046875zm-1.8125 -66.265625q10.03125 0 16.71875 2.28125q6.6875 2.28125 10.703125 6.53125q4.03125 4.25 5.703125 10.34375q1.671875 6.078125 1.671875 13.515625l0 47.125q-4.859375 1.0625 -13.53125 2.5q-8.65625 1.453125 -20.96875 1.453125q-7.75 0 -14.0625 -1.375q-6.3125 -1.359375 -10.875 -4.46875q-4.546875 -3.125 -6.984375 -8.140625q-2.4375 -5.015625 -2.4375 -12.3125q0 -6.984375 2.8125 -11.84375q2.8125 -4.875 7.53125 -7.765625q4.71875 -2.890625 10.796875 -4.171875q6.078125 -1.296875 12.609375 -1.296875q4.40625 0 7.828125 0.390625q3.421875 0.375 5.546875 0.96875l0 -2.125q0 -5.765625 -3.5 -9.265625q-3.484375 -3.5 -12.15625 -3.5q-5.765625 0 -11.390625 0.84375q-5.625 0.828125 -9.734375 2.34375l-2.890625 -18.234375q1.984375 -0.609375 4.9375 -1.28125q2.96875 -0.6875 6.453125 -1.21875q3.5 -0.53125 7.375 -0.90625q3.890625 -0.390625 7.84375 -0.390625zm74.61847 41.5q0 10.484375 4.71875 16.875q4.71875 6.375 13.984375 6.375q3.046875 0 5.625 -0.21875q2.578125 -0.234375 4.25 -0.546875l0 -41.1875q-2.125 -1.359375 -5.546875 -2.265625q-3.421875 -0.921875 -6.90625 -0.921875q-16.125 0 -16.125 21.890625zm51.234375 38.0q-3.046875 0.90625 -7.0 1.75q-3.953125 0.828125 -8.28125 1.4375q-4.328125 0.609375 -8.8125 0.984375q-4.484375 0.375 -8.59375 0.375q-9.875 0 -17.625 -2.875q-7.75 -2.890625 -13.078125 -8.28125q-5.3125 -5.40625 -8.125 -13.078125q-2.8125 -7.671875 -2.8125 -17.25q0 -9.734375 2.421875 -17.5625q2.4375 -7.828125 7.0 -13.296875q4.5625 -5.46875 11.171875 -8.359375q6.609375 -2.890625 15.125 -2.890625q4.703125 0 8.421875 0.921875q3.734375 0.90625 7.53125 2.578125l0 -36.171875l22.65625 -3.65625l0 115.375zm40.57361 -38.0q0 10.484375 4.71875 16.875q4.71875 6.375 13.984375 6.375q3.046875 0 5.625 -0.21875q2.578125 -0.234375 4.25 -0.546875l0 -41.1875q-2.125 -1.359375 -5.546875 -2.265625q-3.421875 -0.921875 -6.90625 -0.921875q-16.125 0 -16.125 21.890625zm51.234375 38.0q-3.046875 0.90625 -7.0 1.75q-3.953125 0.828125 -8.28125 1.4375q-4.328125 0.609375 -8.8125 0.984375q-4.484375 0.375 -8.59375 0.375q-9.875 0 -17.625 -2.875q-7.75 -2.890625 -13.078125 -8.28125q-5.3125 -5.40625 -8.125 -13.078125q-2.8125 -7.671875 -2.8125 -17.25q0 -9.734375 2.421875 -17.5625q2.4375 -7.828125 7.0 -13.296875q4.5625 -5.46875 11.171875 -8.359375q6.609375 -2.890625 15.125 -2.890625q4.703125 0 8.421875 0.921875q3.734375 0.90625 7.53125 2.578125l0 -36.171875l22.65625 -3.65625l0 115.375zm53.19861 4.09375q-9.875 -0.140625 -16.03125 -2.109375q-6.15625 -1.984375 -9.734375 -5.5625q-3.578125 -3.578125 -4.875 -8.65625q-1.28125 -5.09375 -1.28125 -11.484375l0 -88.0l22.640625 -3.65625l0 87.09375q0 3.046875 0.453125 5.484375q0.46875 2.421875 1.75 4.09375q1.296875 1.671875 3.71875 2.734375q2.4375 1.0625 6.546875 1.375l-3.1875 18.6875zm12.313232 -40.890625q0 -10.640625 3.265625 -18.609375q3.265625 -7.984375 8.578125 -13.296875q5.328125 -5.328125 12.234375 -8.0625q6.921875 -2.734375 14.21875 -2.734375q17.03125 0 26.90625 10.421875q9.875 10.40625 9.875 30.609375q0 1.984375 -0.15625 4.34375q-0.140625 2.34375 -0.296875 4.171875l-51.375 0q0.765625 7.0 6.53125 11.109375q5.78125 4.09375 15.515625 4.09375q6.234375 0 12.234375 -1.140625q6.0 -1.140625 9.796875 -2.8125l3.046875 18.390625q-1.828125 0.921875 -4.875 1.828125q-3.03125 0.90625 -6.765625 1.59375q-3.71875 0.6875 -7.96875 1.140625q-4.25 0.453125 -8.515625 0.453125q-10.796875 0 -18.78125 -3.1875q-7.96875 -3.1875 -13.21875 -8.734375q-5.234375 -5.5625 -7.75 -13.15625q-2.5 -7.59375 -2.5 -16.421875zm53.203125 -8.65625q-0.15625 -2.890625 -1.0 -5.625q-0.828125 -2.734375 -2.578125 -4.859375q-1.75 -2.125 -4.40625 -3.5q-2.65625 -1.375 -6.609375 -1.375q-3.8125 0 -6.546875 1.296875q-2.734375 1.296875 -4.5625 3.421875q-1.8125 2.125 -2.8125 4.9375q-0.984375 2.8125 -1.4375 5.703125l29.953125 0z" fill-rule="nonzero"/></g></svg>