<svg version="1.1" viewBox="0.0 0.0 1200.0 1200.0" fill="none" stroke="none" stroke-linecap="square" stroke-miterlimit="10" xmlns:xlink="http://www.w3.org/1999/xlink" xmlns="http://www.w3.org/2000/svg"><clipPath id="p.0"><path d="m0 0l1200.0 0l0 1200.0l-1200.0 0l0 -1200.0z" clip-rule="nonzero"/></clipPath><g clip-path="url(#p.0)"><path fill="#000000" fill-opacity="0.0" d="m0 0l1200.0 0l0 1200.0l-1200.0 0z" fill-rule="evenodd"/><path fill="#351c75" d="m0 200.004l0 0c0 -110.45916 89.54484 -200.004 200.004 -200.004l799.99194 0l0 0c53.044434 0 103.91614 21.071789 141.4242 58.579815c37.508057 37.50803 58.579834 88.37982 58.579834 141.42418l0 799.99194c0 110.45923 -89.5448 200.00403 -200.00403 200.00403l-799.99194 0c-110.45916 0 -200.004 -89.5448 -200.004 -200.00403z" fill-rule="evenodd"/><path fill="#000000" fill-opacity="0.0" d="m405.74936 404.45554l281.82675 391.08664" fill-rule="evenodd"/><path stroke="#ffffff" stroke-width="12.0" stroke-linejoin="round" stroke-linecap="butt" stroke-dasharray="48.0,36.0" d="m405.74936 404.45554l281.82675 391.08664" fill-rule="evenodd"/><path fill="#000000" fill-opacity="0.0" d="m902.5643 445.32245l-214.99213 350.2362" fill-rule="evenodd"/><path stroke="#ffffff" stroke-width="12.0" stroke-linejoin="round" stroke-linecap="butt" stroke-dasharray="48.0,36.0" d="m902.5643 445.32245l-214.99213 350.2362" fill-rule="evenodd"/><path fill="#ffffff" d="m851.43176 466.10138l0 0c0 -16.22934 13.410278 -29.385834 29.952759 -29.385834l0 0c7.9439697 0 15.562561 3.0960083 21.179749 8.606903c5.6172485 5.5109253 8.77301 12.985321 8.77301 20.77893l0 0c0 16.22934 -13.410339 29.385834 -29.952759 29.385834l0 0c-16.54248 0 -29.952759 -13.156494 -29.952759 -29.385834z" fill-rule="evenodd"/><path stroke="#ffffff" stroke-width="24.0" stroke-linejoin="round" stroke-linecap="butt" d="m851.43176 466.10138l0 0c0 -16.22934 13.410278 -29.385834 29.952759 -29.385834l0 0c7.9439697 0 15.562561 3.0960083 21.179749 8.606903c5.6172485 5.5109253 8.77301 12.985321 8.77301 20.77893l0 0c0 16.22934 -13.410339 29.385834 -29.952759 29.385834l0 0c-16.54248 0 -29.952759 -13.156494 -29.952759 -29.385834z" fill-rule="evenodd"/><path fill="#ffffff" d="m288.66275 355.47937l0 0c0 -5.409912 4.3855896 -9.795502 9.795471 -9.795502l214.5823 0c2.5979004 0 5.0894165 1.0320435 6.9263916 2.869049c1.8370361 1.8370056 2.8690796 4.3285217 2.8690796 6.9264526l0 39.180695c0 5.4098816 -4.38562 9.795471 -9.795471 9.795471l-214.5823 0c-5.4098816 0 -9.795471 -4.3855896 -9.795471 -9.795471z" fill-rule="evenodd"/><path stroke="#ffffff" stroke-width="24.0" stroke-linejoin="round" stroke-linecap="butt" d="m288.66275 355.47937l0 0c0 -5.409912 4.3855896 -9.795502 9.795471 -9.795502l214.5823 0c2.5979004 0 5.0894165 1.0320435 6.9263916 2.869049c1.8370361 1.8370056 2.8690796 4.3285217 2.8690796 6.9264526l0 39.180695c0 5.4098816 -4.38562 9.795471 -9.795471 9.795471l-214.5823 0c-5.4098816 0 -9.795471 -4.3855896 -9.795471 -9.795471z" fill-rule="evenodd"/><path fill="#ffffff" d="m570.4833 805.3399l0 0c0 -5.409851 4.385559 -9.795471 9.795471 -9.795471l214.58228 0c2.5979004 0 5.0894165 1.0320435 6.9264526 2.8690796c1.8369751 1.8369751 2.8690186 4.328491 2.8690186 6.9263916l0 39.180725c0 5.409912 -4.38562 9.795471 -9.795471 9.795471l-214.58228 0c-5.409912 0 -9.795471 -4.385559 -9.795471 -9.795471z" fill-rule="evenodd"/><path stroke="#ffffff" stroke-width="24.0" stroke-linejoin="round" stroke-linecap="butt" d="m570.4833 805.3399l0 0c0 -5.409851 4.385559 -9.795471 9.795471 -9.795471l214.58228 0c2.5979004 0 5.0894165 1.0320435 6.9264526 2.8690796c1.8369751 1.8369751 2.8690186 4.328491 2.8690186 6.9263916l0 39.180725c0 5.409912 -4.38562 9.795471 -9.795471 9.795471l-214.58228 0c-5.409912 0 -9.795471 -4.385559 -9.795471 -9.795471z" fill-rule="evenodd"/></g></svg>